<svg id="Capa_1" enable-background="new 0 0 512 512" height="70" viewBox="0 0 512 512" width="70" xmlns="http://www.w3.org/2000/svg"><g><g><path d="m423.311 108.224c-.005-10.892-8.833-19.72-19.725-19.725l-161.556-.077c-5.237-.003-10.261 2.077-13.964 5.78l-214.899 214.899c-7.707 7.707-7.707 20.202 0 27.909l161.633 161.632c7.707 7.707 20.202 7.707 27.909 0l214.899-214.9c3.703-3.703 5.783-8.727 5.78-13.964zm-50.212 74.964c-12.282 12.282-32.196 12.282-44.478 0s-12.282-32.196 0-44.478 32.196-12.282 44.478 0c12.283 12.282 12.283 32.196 0 44.478z" fill="#e28086"/></g><g><path d="m423.311 108.223c-.005-10.892-8.833-19.72-19.725-19.725l-12.889-.006c.16 1.011.267 2.04.268 3.095l.077 161.556c.003 5.237-2.077 10.261-5.78 13.964l-220.999 220.999 10.537 10.537c7.707 7.707 20.202 7.707 27.909 0l214.899-214.899c3.703-3.703 5.783-8.727 5.78-13.964z" fill="#dd636e"/></g><g><path d="m174.799 498.642c7.707 7.707 20.202 7.707 27.909 0l214.899-214.899c3.703-3.703 5.783-8.727 5.78-13.964l-.032-66.433-271.925 271.926z" fill="#fff0af"/></g><g><path d="m174.799 498.642c7.707 7.707 20.202 7.707 27.909 0l214.899-214.899c3.703-3.703 5.783-8.727 5.78-13.964l-.032-66.433-271.925 271.926z" fill="#fff0af"/></g><g><path d="m242.03 88.422c-5.237-.002-10.26 2.077-13.964 5.78l-214.899 214.9c-7.707 7.707-7.707 20.202 0 27.909l23.18 23.18 271.738-271.738z" fill="#fff0af"/></g><g><path d="m423.356 203.346-32.323 32.323.008 17.475c.003 5.237-2.077 10.261-5.78 13.964l-220.998 220.998 10.537 10.537c7.707 7.707 20.202 7.707 27.909 0l214.899-214.899c3.703-3.703 5.783-8.727 5.78-13.964z" fill="#ffe07d"/></g><g><path d="m478.893.191c-18.255 0-33.107 14.851-33.107 33.107v18.307h-48.031c-18.789 0-34.733 12.415-40.06 29.471l-115.66-.054c-.005 0-.01 0-.015 0-7.248 0-14.061 2.822-19.185 7.947l-214.901 214.9c-10.579 10.58-10.579 27.795 0 38.374l161.632 161.632c5.29 5.289 12.239 7.934 19.187 7.934 6.949 0 13.897-2.645 19.187-7.934l180.962-180.962c2.89-2.891 2.89-7.575 0-10.466-2.89-2.889-7.575-2.889-10.465 0l-180.961 180.962c-4.809 4.81-12.635 4.81-17.444 0l-18.137-18.137 254.07-254.07.023 48.581c.001 3.296-1.282 6.396-3.612 8.727l-9.056 9.055c-2.89 2.89-2.89 7.575 0 10.465 1.445 1.445 3.339 2.168 5.233 2.168s3.788-.723 5.233-2.167l9.056-9.055c5.129-5.129 7.951-11.947 7.947-19.201l-.049-100.635c17.5-5.274 29.846-21.606 29.846-40.179v-62.556h18.307c18.255 0 33.107-14.852 33.107-33.108s-14.852-33.106-33.107-33.106zm-115.696 149.281c2.713 0 5.078-1.464 6.366-3.641 7.638 9.436 7.076 23.351-1.696 32.123-9.377 9.379-24.636 9.379-34.013 0-9.377-9.377-9.377-24.635 0-34.012 4.689-4.69 10.848-7.034 17.007-7.034 1.656 0 3.309.184 4.937.522v4.641c-.001 4.089 3.312 7.401 7.399 7.401zm82.589-20.511c0 10.452-6.037 19.807-15.053 24.315l-.021-45.056c-.007-14.948-12.174-27.114-27.121-27.122-.001 0-.002 0-.004 0-4.085 0-7.398 3.311-7.4 7.396-.002 4.086 3.309 7.402 7.396 7.404 6.795.004 12.326 5.535 12.329 12.33l.044 92.053-264.526 264.526-104.617-104.616 37.277-37.278c2.89-2.891 2.89-7.575 0-10.466-2.89-2.889-7.575-2.889-10.465 0l-37.278 37.278-17.947-17.948c-4.809-4.809-4.809-12.634 0-17.443l214.9-214.9c2.329-2.33 5.425-3.612 8.72-3.612h.007l48.201.023-191.721 191.72c-2.89 2.891-2.89 7.575 0 10.466 1.445 1.444 3.339 2.167 5.233 2.167s3.788-.723 5.233-2.167l202.176-202.176 44.648.021v26.563c-11.522-1.464-23.579 2.209-32.408 11.038-15.148 15.148-15.148 39.796 0 54.944 7.574 7.573 17.523 11.36 27.472 11.36s19.898-3.787 27.472-11.36c15.148-15.148 15.148-39.796 0-54.944-2.37-2.37-4.973-4.368-7.735-5.997v-33.918c0-14.975 12.183-27.157 27.157-27.157h48.031zm33.107-77.356h-18.307v-18.308c0-10.094 8.212-18.306 18.307-18.306s18.307 8.212 18.307 18.306c0 10.096-8.212 18.308-18.307 18.308z"/><path d="m288.098 287.562-90.221-40.782c-.066-.03-.132-.059-.199-.087-3.584-1.495-7.672-.685-10.414 2.063-2.743 2.749-3.544 6.838-2.042 10.419.023.055.047.11.071.164l40.553 90.445c1.675 3.767 6.139 5.383 9.78 3.725 3.729-1.672 5.397-6.051 3.725-9.78l-8.013-17.872 32.857-32.857 17.806 8.049c3.726 1.682 8.108.03 9.791-3.695 1.684-3.725.03-8.108-3.694-9.792zm-63.24 23.844-20.35-45.387 45.273 20.464z"/><path d="m151.332 297.11c-1.832-3.653-6.277-5.129-9.931-3.299-3.654 1.832-5.131 6.279-3.299 9.932l36.632 73.077-74.15-35.937c-3.676-1.781-8.103-.246-9.886 3.431-1.783 3.678-.246 8.104 3.432 9.887l88.201 42.748c3.624 1.73 8.014.984 10.867-1.913 2.843-2.883 3.552-7.26 1.739-10.939z"/><path d="m264.297 191.067 13.186-13.186c2.89-2.891 2.89-7.575 0-10.466-2.89-2.889-7.575-2.889-10.465 0l-36.689 36.689c-2.89 2.891-2.89 7.575 0 10.466 2.89 2.889 7.575 2.889 10.465 0l13.038-13.038 61.202 61.203c2.89 2.889 7.575 2.889 10.465 0 2.89-2.891 2.89-7.575 0-10.466z"/></g></g></svg>